<?xml version="1.0" encoding="UTF-8"?>
<svg width="300" height="120" viewBox="0 0 300 120" xmlns="http://www.w3.org/2000/svg">
  <!-- Définitions des gradients et styles -->
  <defs>
    <!-- Gradient pour le fond -->
    <linearGradient id="bgGradient" x1="0%" y1="0%" x2="100%" y2="100%">
      <stop offset="0%" style="stop-color:#E8F5E8;stop-opacity:1" />
      <stop offset="100%" style="stop-color:#F0F8FF;stop-opacity:1" />
    </linearGradient>
    
    <!-- Gradient pour le chien -->
    <linearGradient id="dogGradient" x1="0%" y1="0%" x2="100%" y2="100%">
      <stop offset="0%" style="stop-color:#8B4513;stop-opacity:1" />
      <stop offset="100%" style="stop-color:#A0522D;stop-opacity:1" />
    </linearGradient>
    
    <!-- Gradient pour les éléments tech -->
    <linearGradient id="techGradient" x1="0%" y1="0%" x2="100%" y2="100%">
      <stop offset="0%" style="stop-color:#1E88E5;stop-opacity:1" />
      <stop offset="100%" style="stop-color:#42A5F5;stop-opacity:1" />
    </linearGradient>
    
    <!-- Filtre pour l'ombre -->
    <filter id="dropShadow" x="-20%" y="-20%" width="140%" height="140%">
      <feDropShadow dx="2" dy="2" stdDeviation="2" flood-color="rgba(0,0,0,0.3)"/>
    </filter>
    
    <!-- Animation pour les ondes radar -->
    <animateTransform id="radarSpin" attributeName="transform" type="rotate" 
                      values="0 45 35;360 45 35" dur="3s" repeatCount="indefinite"/>
  </defs>
  
  <!-- Fond avec bordure arrondie -->
  <rect x="2" y="2" width="296" height="116" rx="15" ry="15" 
        fill="url(#bgGradient)" stroke="#2D8A47" stroke-width="2"/>
  
  <!-- Section gauche : Logo du chien gardien -->
  <g transform="translate(20, 20)">
    <!-- Corps du chien -->
    <ellipse cx="25" cy="45" rx="18" ry="12" fill="url(#dogGradient)" filter="url(#dropShadow)"/>
    
    <!-- Tête du chien -->
    <circle cx="25" cy="25" r="15" fill="url(#dogGradient)" filter="url(#dropShadow)"/>
    
    <!-- Oreilles (en forme d'antennes) -->
    <path d="M15 15 Q10 5 8 12 Q12 8 15 15" fill="#654321" stroke="#2D8A47" stroke-width="1"/>
    <path d="M35 15 Q40 5 42 12 Q38 8 35 15" fill="#654321" stroke="#2D8A47" stroke-width="1"/>
    
    <!-- Antennes tech sur les oreilles -->
    <circle cx="10" cy="8" r="2" fill="url(#techGradient)"/>
    <circle cx="40" cy="8" r="2" fill="url(#techGradient)"/>
    <line x1="10" y1="8" x2="10" y2="4" stroke="#1E88E5" stroke-width="1"/>
    <line x1="40" y1="8" x2="40" y2="4" stroke="#1E88E5" stroke-width="1"/>
    
    <!-- Yeux vigilants -->
    <circle cx="20" cy="22" r="3" fill="white"/>
    <circle cx="30" cy="22" r="3" fill="white"/>
    <circle cx="20" cy="22" r="2" fill="#1E88E5"/>
    <circle cx="30" cy="22" r="2" fill="#1E88E5"/>
    <circle cx="20.5" cy="21.5" r="0.8" fill="white"/> <!-- Reflet -->
    <circle cx="30.5" cy="21.5" r="0.8" fill="white"/> <!-- Reflet -->
    
    <!-- Museau et truffe -->
    <ellipse cx="25" cy="28" rx="4" ry="3" fill="#CD853F"/>
    <circle cx="25" cy="30" r="1.5" fill="black"/>
    
    <!-- Collier avec éléments écologiques -->
    <rect x="15" y="35" width="20" height="4" rx="2" fill="#2D8A47"/>
    <circle cx="18" cy="37" r="1" fill="#FFD700"/> <!-- Médaille feuille -->
    <circle cx="25" cy="37" r="1" fill="#32CD32"/> <!-- Médaille terre -->
    <circle cx="32" cy="37" r="1" fill="#00CED1"/> <!-- Médaille eau -->
    
    <!-- Queue qui remue (optionnel) -->
    <path d="M40 40 Q50 35 48 45" stroke="url(#dogGradient)" stroke-width="3" fill="none"/>
  </g>
  
  <!-- Section centrale : Radar/Scanner -->
  <g transform="translate(80, 25)">
    <!-- Base du radar -->
    <circle cx="25" cy="35" r="20" fill="none" stroke="#2D8A47" stroke-width="2" opacity="0.3"/>
    <circle cx="25" cy="35" r="15" fill="none" stroke="#2D8A47" stroke-width="1.5" opacity="0.5"/>
    <circle cx="25" cy="35" r="10" fill="none" stroke="#2D8A47" stroke-width="1" opacity="0.7"/>
    
    <!-- Ligne de balayage radar -->
    <g>
      <line x1="25" y1="35" x2="45" y2="35" stroke="#1E88E5" stroke-width="2" opacity="0.8"/>
      <animateTransform attributeName="transform" type="rotate" 
                        values="0 25 35;360 25 35" dur="3s" repeatCount="indefinite"/>
    </g>
    
    <!-- Points détectés (actualités) -->
    <circle cx="35" cy="25" r="2" fill="#FF6B35">
      <animate attributeName="opacity" values="0.3;1;0.3" dur="2s" repeatCount="indefinite"/>
    </circle>
    <circle cx="30" cy="45" r="1.5" fill="#32CD32">
      <animate attributeName="opacity" values="1;0.3;1" dur="1.5s" repeatCount="indefinite"/>
    </circle>
    <circle cx="40" cy="40" r="1" fill="#FFD700">
      <animate attributeName="opacity" values="0.5;1;0.5" dur="1s" repeatCount="indefinite"/>
    </circle>
  </g>
  
  <!-- Section droite : Texte InfoWatchdog -->
  <g transform="translate(130, 20)">
    <!-- Titre principal -->
    <text x="0" y="15" font-family="Arial, sans-serif" font-size="18" font-weight="bold" fill="#2D8A47">
      InfoWatchdog
    </text>
    
    <!-- Sous-titre -->
    <text x="0" y="32" font-family="Arial, sans-serif" font-size="10" fill="#1E88E5">
      Environmental News Guardian
    </text>
    
    <!-- Icônes des fonctionnalités -->
    <g transform="translate(0, 40)">
      <!-- Reddit -->
      <circle cx="8" cy="8" r="6" fill="#FF4500" opacity="0.8"/>
      <text x="8" y="12" font-family="Arial, sans-serif" font-size="8" fill="white" text-anchor="middle">r/</text>
      
      <!-- RSS -->
      <circle cx="25" cy="8" r="6" fill="#FFA500" opacity="0.8"/>
      <path d="M22 5 Q28 5 28 11 Q28 14 25 14 Q22 14 22 11 Z" fill="white" stroke="none"/>
      
      <!-- Airtable -->
      <rect x="35" y="2" width="12" height="12" rx="2" fill="#18BFFF" opacity="0.8"/>
      <rect x="37" y="4" width="8" height="2" fill="white"/>
      <rect x="37" y="7" width="8" height="2" fill="white"/>
      <rect x="37" y="10" width="8" height="2" fill="white"/>
      
      <!-- Écologie -->
      <circle cx="58" cy="8" r="6" fill="#32CD32" opacity="0.8"/>
      <path d="M55 8 Q58 4 61 8 Q58 12 55 8" fill="white"/>
    </g>
    
    <!-- Statut en ligne -->
    <g transform="translate(0, 65)">
      <circle cx="5" cy="5" r="3" fill="#32CD32">
        <animate attributeName="opacity" values="0.5;1;0.5" dur="2s" repeatCount="indefinite"/>
      </circle>
      <text x="12" y="8" font-family="Arial, sans-serif" font-size="9" fill="#2D8A47">
        Always Watching
      </text>
    </g>
  </g>
  
  <!-- Éléments décoratifs : Feuilles volantes -->
  <g opacity="0.6">
    <path d="M10 100 Q15 95 20 100 Q15 105 10 100" fill="#32CD32">
      <animateTransform attributeName="transform" type="translate" 
                        values="0 0;5 -2;0 0" dur="4s" repeatCount="indefinite"/>
    </path>
    <path d="M280 20 Q285 15 290 20 Q285 25 280 20" fill="#228B22">
      <animateTransform attributeName="transform" type="translate" 
                        values="0 0;-3 2;0 0" dur="3s" repeatCount="indefinite"/>
    </path>
  </g>
  
  <!-- Version alternative sans animation (pour GitHub) -->
  <!-- 
  <style>
    .no-animation * {
      animation: none !important;
    }
  </style>
  -->
</svg>